<svg xmlns="http://www.w3.org/2000/svg" width="220" height="44.761" xmlns:v="https://vecta.io/nano"><path fill="#8dd7f7" d="M16.144 1.393c7.838 0 14.176 6.338 14.176 14.177 0 4.935-2.903 10.112-6.435 14.563l-.097-.29-.048-.193-.146-.145-.145-.146-.194-.146-.193-.048-.193-.047h-.193l-.194.048-.532.146-.87-2.758c4.064-1.89 6.87-6 6.87-10.8 0-6.532-5.322-11.854-11.854-11.854-6.58 0-11.902 5.322-11.902 11.854 0 6.58 5.322 11.903 11.902 11.903.726 0 1.45-.05 2.13-.195l.87 2.71-.436.146-.193.098-.145.096-.145.145-.146.195-.048.193-.05.193v.24l.05.146 1.16 3.773c-1.064 1.016-2.08 1.936-3 2.758-5.564-4.838-9.628-10.11-12.483-15.82h.048C2.596 20.312 1.967 18 1.967 15.57A14.17 14.17 0 0 1 16.144 1.393h0zm5.806 6.193c-1.452-.242-3.242 1.258-5.854 6.048-.63-.145-1.258-.242-1.887-.34 0-.145-.097-.3-.242-.436-.242-.193-.532-.145-.726.097-.05.048-.097.145-.097.242-.63-.097-1.306-.097-1.935-.145a22.07 22.07 0 0 0-3.581 0L6.612 14.36l6.678 2.42-.048.05-6.677-2.42-.194.242 7.064 2.516-1.84 2.903-2.903.387L7.63 21.86l3.774.774 2.032 3.29.968-1.5-.677-2.855 2.128-2.71 4.79 5.806.145-.3-4.548-5.42.05-.048 4.548 5.37.87-1.4c-.34-1.113-.726-2.227-1.21-3.29l-.774-1.693-.048-.146c.096 0 .145-.097.193-.145.146-.242.097-.58-.193-.726-.146-.097-.34-.146-.484-.048-.29-.58-.63-1.16-.92-1.694 3.58-4.114 4.352-6.29 3.675-7.55z"/><path d="M16.096 4.538a11.28 11.28 0 0 1 10.741 7.838l.048.3.048.05c0 .096.048.145.048.193s0 .097.048.145v.145l.048.097.05.194v.097l.048.145v.146l.048.145v.146l.048.096v.3l.05.145v.532l.048.146v.822l-.048.097v.58l-.05.097v.3l-.048.097v.3l-.048.096c-.048.194-.048.436-.146.63v.193l-.048.097-.048.193v.048c-.048.048-.048.097-.048.194l-.048.096-.048.145-.048.05-.048.193-.05.097-.048.146v.096l-.096.146-.05.097-.048.145-.048.097-.048.146-.048.097-.097.145v.048l-.34.63-.048.05a9.73 9.73 0 0 1-1.839 2.37l-.048.05c-.483.484-1.016.918-1.645 1.258v.048c-.58.388-1.2.677-1.887.968l1.2 3.823 1.064-.292c.242-.096.532.05.63.292l3.58 11.612c.097.24-.048.53-.338.578l-3.726 1.2c-.3.05-.532-.096-.63-.34l-3.58-11.6c-.097-.242.048-.532.3-.58l1.016-.34-1.258-3.822c-.678.195-1.355.3-2.032.3h-.484v-1.403h.3c.58-.05 1.2-.096 1.8-.24.63-.146 1.2-.3 1.742-.532.387-.194.774-.34 1.113-.582a1.01 1.01 0 0 0 .387-.24l.097-.048.097-.1h.096l.097-.097.097-.048.097-.097.145-.097.048-.048c.05-.05.097-.097.146-.097l.048-.05.3-.3.048-.05c.048 0 .096-.048.145-.096l.048-.048.145-.146v-.048l.145-.097.048-.048.146-.145v-.048l.145-.146.048-.047.146-.146v-.048l.145-.193c3.3-4.307 2.468-10.45-1.838-13.8-1.8-1.354-3.87-1.983-5.95-1.983V4.538zm-3.436.532c1.16-.387 2.274-.532 3.436-.532V6a9.81 9.81 0 0 0-7.8 3.822c-3.338 4.306-2.516 10.5 1.8 13.8l.242.145.145.145h.048l.194.146c.097.047.145.096.193.145h.048c.05.047.097.098.193.098l.194.146h.05l.145.097h.048l.194.097.05.048c.145.05.3.098.387.193h.048c.048 0 .097.05.194.05v.05c.096 0 .145.05.193.05l.097.047c.05 0 .097 0 .146.05h.048c.048.05.145.05.193.05l.048.048.146.047h.097l.145.05h.05a.36.36 0 0 0 .193.049l.05.047h.194l.048.05h.194l.048.05h.242l.146.05h.24l.05.047h.338c.097 0 .146 0 .242.048h.484v1.404h-.92c-.097 0-.145-.05-.194-.05h-.338c-.048-.048-.145-.048-.193-.048h-.097c-.048 0-.097-.05-.194-.05l-.242-.048h-.05l-.193-.048h-.048l-.243-.05c-.63-.192-1.258-.388-1.887-.677h-.048l-.436-.242c-.097 0-.146-.05-.194-.098h-.097l-.097-.096-.146-.05-.097-.097-.145-.05-.097-.05-.097-.098L9.9 25.2l-.048-.05-.145-.047-.097-.1-.146-.096-.048-.05-.146-.096-.096-.05c0-.05-.05-.098-.097-.098l-.097-.098-.097-.047-.145-.146-.097-.047-.045-.097c-.048 0-.097-.05-.145-.097v-.05c-.146-.098-.242-.193-.34-.3-.145-.146-.242-.24-.34-.387h-.048l-.145-.193-.146-.145s-.048-.048-.048-.096l-.193-.193-.048-.095-.097-.096-.096-.146-.05-.097-.097-.097-.097-.145-.048-.097-.096-.097-.048-.145-.097-.097-.048-.097-.048-.145-.097-.097c0-.05-.048-.097-.048-.194l-.048-.048-.097-.145-.048-.097c0-.048-.048-.097-.048-.193l-.048-.097-.1-.096-.048-.145-.048-.146-.05-.097-.048-.145-.05-.145-.048-.096-.048-.145-.097-.3c-.242-.822-.436-1.645-.484-2.467v-1.887c.387-4.403 3.338-8.37 7.8-9.774h0zm98.026 21.628v-2.7h.145c.534 0 .968-.098 1.354-.34.098 0 .146-.048.243-.145l.24-.242c.05-.097.146-.242.388-.387.193-.145.483-.242.87-.242h2.274c-.34 1.307-1.017 2.322-1.935 3-.918.726-2.127 1.064-3.58 1.064h0zm0-5.613v-2.13h2.372c-.05-.823-.3-1.452-.63-1.84-.437-.436-1.017-.677-1.743-.677v-2.7c1.838 0 3.242.58 4.257 1.693.967 1.16 1.45 2.758 1.45 4.84v.483c0 .194 0 .3-.047.34h-5.66zm6.918 1.26h3.194c.047.628.3 1.112.726 1.403.484.338 1.063.482 1.888.482.53 0 1.016-.096 1.45-.338.34-.193.53-.483.53-.87 0-.58-.63-1.017-1.935-1.258-.58-.097-1.017-.194-1.307-.3-1.645-.435-2.76-.92-3.3-1.45-.63-.58-.97-1.306-.97-2.274 0-1.16.486-2.177 1.356-2.95.968-.726 2.177-1.064 3.678-1.064 1.644 0 2.902.34 3.87 1.064.92.774 1.403 1.8 1.452 3.048h-1.983c-.63 0-1.064-.242-1.355-.774-.145-.145-.3-.24-.387-.387-.387-.3-.92-.435-1.55-.435s-1.1.097-1.402.3-.436.484-.436.87c0 .484.822.92 2.42 1.258l.532.145.388.05c1.597.387 2.708.87 3.34 1.403.58.532.87 1.306.87 2.226 0 1.402-.484 2.467-1.5 3.193-.918.676-2.32 1.016-4.208 1.016-1.8 0-3.097-.34-3.97-1.064-.92-.725-1.402-1.742-1.402-3.145v-.145h-.001zm-6.918-8.613v2.7c-.677 0-1.258.24-1.693.677s-.677 1.064-.726 1.84h2.42v2.13h-2.42c.05.968.3 1.693.726 2.177.387.436.92.726 1.693.726v2.7h-.047c-1.8 0-3.194-.58-4.162-1.742-1.016-1.112-1.5-2.7-1.5-4.8 0-2.032.484-3.58 1.452-4.693.967-1.16 2.37-1.74 4.16-1.74l.096-.001zM89.6 26.698v-2.613c.242 0 .436-.048.678-.097.484-.145.92-.532 1.306-1.064.338-.58.58-1.5.58-2.7 0-1.16-.146-1.984-.533-2.564-.34-.532-.774-.92-1.258-1.064a1.38 1.38 0 0 0-.774-.097v-2.76c.87 0 1.645.097 2.322.387 1.2.435 2.08 1.258 2.66 2.42.532 1.016.774 2.226.774 3.628 0 .967-.097 1.838-.34 2.564a6.42 6.42 0 0 1-.822 1.839c-.774 1.016-1.693 1.645-2.854 1.887-.58.197-1.162.244-1.742.244zm7.306-.242v-6.048c0-1.2.146-2.226.532-3.048.34-.823.823-1.5 1.452-1.983.58-.484 1.306-.823 2.08-1.017.823-.242 1.646-.34 2.468-.34h.484v3.34h-1.065c-.918 0-1.596.193-2.032.63s-.677 1.113-.677 2.08v6.386h-3.242zM89.6 13.73v2.758c-.193 0-.387 0-.63.097-.435.146-.774.3-1.016.532-.677.726-.967 1.8-.87 3.193.048 1.404.3 2.42.774 3 .194.242.532.436.968.63a2.37 2.37 0 0 0 .774.145V26.7a7.18 7.18 0 0 1-1.403-.146c-1.016-.242-1.887-.63-2.467-1.2-.677-.532-1.16-1.306-1.452-2.274a11.73 11.73 0 0 1-.387-2.951 9.38 9.38 0 0 1 .338-2.564c.242-.822.58-1.548 1.113-2.08.823-.967 1.84-1.5 3.146-1.693.387-.05.773-.05 1.112-.05h0zM58.674 26.698v-2.7h.145c.532 0 1.016-.098 1.354-.34.097 0 .193-.048.3-.145.048-.097.145-.146.242-.242.048-.097.146-.242.34-.387a1.67 1.67 0 0 1 .871-.242h2.37c-.338 1.307-1.016 2.322-1.984 3-.968.724-2.178 1.064-3.63 1.064zm0-5.613v-2.13h2.42c-.048-.823-.3-1.452-.678-1.84-.387-.436-.967-.677-1.74-.677v-2.7c1.838 0 3.3.58 4.306 1.693.968 1.16 1.5 2.758 1.5 4.84v.483c0 .194-.048.3-.048.34h-5.758zm7.45-10.74h1.694c.435 0 .774.146 1.113.436.3.34.483.677.483 1.113v14.563h-3.3V10.344zm12.676 7.16c-.484-.63-1.113-.968-1.936-.968-.87 0-1.548.34-2.032.92-.436.63-.677 1.5-.677 2.613v6.386H70.96v-16.1h1.597c.435 0 .822.146 1.112.484.34.3.484.677.484 1.113v3.726a3.58 3.58 0 0 1 2.37-1.8c1.065-.242 2.032-.194 2.952.193.87.338 1.645.967 2.226 1.8.58.774.87 1.936.87 3.338v7.257H79.43V20.02a10.54 10.54 0 0 0-.097-1.306 3.65 3.65 0 0 0-.531-1.209zm-43.546 8.95v-14.42a1.61 1.61 0 0 1 .484-1.21c.338-.3.726-.484 1.2-.532h3.193l3.194 12.337 3.193-12.337h4.935v16.16h-3.097V13.44l-3.3 13.015H41.64l-3.3-13.015v13.015h-3.096zm23.42-12.725v2.7c-.677 0-1.2.24-1.646.677-.483.436-.677 1.064-.726 1.84h2.37v2.13h-2.37c.048.968.242 1.693.726 2.177.34.436.92.726 1.646.726v2.7h-.048c-1.742 0-3.146-.58-4.162-1.742-.967-1.112-1.5-2.7-1.5-4.8 0-2.032.484-3.58 1.45-4.693 1.017-1.16 2.42-1.742 4.16-1.742h.098z" fill="#fff"/><path fill="#8dd7f7" d="M199.955 26.698v-2.613c.192 0 .436-.048.63-.097.484-.145.92-.532 1.306-1.064.388-.58.58-1.5.63-2.71 0-1.16-.193-1.984-.58-2.564-.34-.532-.773-.92-1.21-1.064-.292-.097-.533-.145-.773-.097v-2.76c.82 0 1.596.097 2.32.387 1.162.435 2.033 1.258 2.614 2.42.53 1.016.773 2.226.773 3.628 0 .967-.097 1.838-.3 2.564-.242.726-.532 1.307-.87 1.84-.727 1.016-1.695 1.645-2.854 1.887-.582.197-1.115.244-1.695.244h0zm6.967-4.354h3.193c.05.628.242 1.112.677 1.403.485.338 1.114.482 1.888.482.58 0 1.065-.096 1.45-.338.388-.193.58-.483.58-.87 0-.58-.68-1.017-1.983-1.258l-1.26-.29c-1.644-.435-2.757-.92-3.337-1.45-.63-.58-.92-1.306-.92-2.274 0-1.16.435-2.177 1.355-2.95.918-.726 2.176-1.064 3.677-1.064 1.597 0 2.902.34 3.87 1.064.92.774 1.403 1.8 1.452 3.048h-2.033c-.58 0-1.016-.242-1.354-.774-.098-.145-.243-.24-.388-.387-.34-.3-.87-.435-1.5-.435s-1.112.097-1.45.3c-.242.194-.388.484-.388.87 0 .484.824.92 2.42 1.258l.484.145.435.05c1.55.387 2.66.87 3.3 1.403s.92 1.306.92 2.226c0 1.402-.532 2.467-1.498 3.193-.97.676-2.37 1.016-4.21 1.016-1.79 0-3.146-.34-4.018-1.064-.918-.725-1.354-1.742-1.354-3.145v-.145zm-6.967-8.613v2.758c-.242 0-.436 0-.63.097-.483.146-.822.29-1.064.532-.63.726-.92 1.79-.87 3.193s.338 2.42.774 3c.192.242.53.436 1.017.63.24.098.482.145.773.145V26.7c-.484 0-.97-.048-1.404-.146-1.064-.242-1.887-.63-2.516-1.2-.678-.532-1.112-1.306-1.404-2.274-.29-.918-.434-1.935-.434-2.95 0-.87.146-1.693.338-2.564.242-.822.63-1.548 1.114-2.08.82-.967 1.886-1.5 3.145-1.693.388-.05.774-.05 1.16-.05zM151 26.698v-2.71h.145c.533 0 .968-.098 1.355-.34.098 0 .193-.048.242-.145l.3-.242c0-.097.146-.242.34-.387s.483-.242.87-.242h2.322c-.34 1.307-.97 2.322-1.936 3-.967.726-2.177 1.064-3.628 1.064h0zm0-5.613v-2.13h2.37c-.05-.823-.242-1.452-.63-1.84-.437-.436-1.018-.677-1.744-.677v-2.7c1.84 0 3.242.58 4.258 1.693 1.018 1.16 1.5 2.758 1.5 4.84v.483c0 .194 0 .29-.05.34H151v.001zm7.016 1.26h3.193c0 .628.242 1.112.678 1.403.482.338 1.11.482 1.887.482.58 0 1.064-.096 1.45-.338.387-.193.58-.483.58-.87 0-.58-.677-1.017-1.983-1.258-.58-.097-.968-.194-1.26-.29-1.692-.435-2.757-.92-3.34-1.45-.63-.58-.918-1.306-.918-2.274 0-1.16.436-2.177 1.354-2.95.92-.726 2.13-1.064 3.628-1.064 1.646 0 2.953.34 3.92 1.064.87.774 1.354 1.8 1.452 3.048h-2.033c-.58 0-1.064-.242-1.354-.774l-.388-.387c-.388-.3-.87-.435-1.548-.435-.63 0-1.064.097-1.403.3-.3.194-.435.484-.435.87 0 .484.822.92 2.467 1.258l.484.145c.145 0 .29.05.387.05 1.598.387 2.71.87 3.34 1.403.58.532.87 1.306.87 2.226 0 1.402-.483 2.467-1.498 3.193-.92.676-2.322 1.016-4.21 1.016-1.79 0-3.096-.34-3.965-1.064-.922-.725-1.356-1.742-1.356-3.145l-.001-.146zm18.096 4.112c-1.016.098-2.13.05-3.338 0-1.2-.096-1.84-.87-1.84-2.322v-13.8h1.695c.434 0 .772.146 1.11.484.29.29.436.677.436 1.113v2.13h1.936v.63c0 .484-.145.87-.484 1.16-.3.29-.678.436-1.11.436h-.34v6.967c0 .532.34.774.967.774h.97l-.001 2.42zm1.547-12.435h1.693c.435 0 .823.146 1.114.436.338.34.482.726.482 1.162v10.837h-3.3l.001-12.435zm0-3.677h1.693c.435 0 .823.146 1.114.484.338.29.482.677.482 1.113v1.016h-3.3v-2.613h.001zm15.337 16.112h-1.644c-.483 0-.872-.145-1.16-.436s-.437-.677-.437-1.11V18.52c0-.774-.24-1.306-.677-1.645-.484-.34-.968-.532-1.55-.532a2.36 2.36 0 0 0-1.499.532c-.435.34-.63.87-.63 1.645v7.935h-3.29V19.15c0-2.13.532-3.532 1.646-4.258s2.323-1.112 3.678-1.16c1.402 0 2.66.34 3.82 1.064s1.74 2.177 1.74 4.354v7.307zM136.96 10.344c2.273.097 3.967.726 5.13 1.984 1.2 1.354 1.79 3.387 1.79 6.096 0 1.452-.193 2.71-.628 3.87-.532 1.2-1.16 2.13-1.983 2.71-.678.533-1.404.92-2.178 1.162-.532.145-1.2.24-2.13.29v-2.952c1.113-.097 1.934-.484 2.517-1.16.677-.726 1.063-2.032 1.063-3.92 0-1.84-.34-3.145-1.016-4.016-.533-.726-1.402-1.16-2.564-1.21v-2.856zM151 13.73v2.7c-.678 0-1.258.24-1.694.677s-.677 1.064-.677 1.84h2.37v2.13h-2.37c0 .968.24 1.693.677 2.177.388.436.968.726 1.694.726v2.71h-.05c-1.8 0-3.192-.58-4.16-1.742-1.015-1.112-1.5-2.71-1.5-4.8 0-2.032.485-3.58 1.452-4.693.968-1.16 2.37-1.742 4.16-1.742H151zm-20.804 12.725v-14.42c0-.483.193-.87.53-1.21a1.69 1.69 0 0 1 1.162-.484h5.08v2.854c-.146-.048-.29-.048-.436-.048h-3.096v10.402h2.71c.29 0 .58 0 .822-.048v2.95h-6.772v.001z"/><path d="M195.696 37.05v-1.015c.243 0 .437-.05.58-.146.193-.047.34-.192.436-.34s.193-.3.242-.483c.098-.243.098-.437.098-.678 0-.3 0-.485-.098-.677-.05-.242-.146-.4-.242-.533s-.242-.3-.436-.34c-.145-.097-.338-.146-.58-.146V31.68c.388 0 .68.096 1.017.193a2.11 2.11 0 0 1 .773.484 2.76 2.76 0 0 1 .582.871c.097.338.193.725.193 1.16s-.05.823-.193 1.112a3.84 3.84 0 0 1-.533.871c-.24.193-.482.387-.822.484-.3.1-.63.195-1.017.195h0zm6.775-1.014c.145 0 .3 0 .387-.05.098 0 .195-.048.242-.098l.146-.145.048-.24c0-.146-.097-.3-.24-.387-.195-.146-.438-.242-.824-.4-.145-.047-.34-.096-.484-.192a1.01 1.01 0 0 1-.484-.291c-.097-.097-.24-.24-.3-.388a1.33 1.33 0 0 1-.146-.629 1.34 1.34 0 0 1 .146-.627c.096-.192.193-.34.388-.485.145-.146.338-.24.58-.3a1.94 1.94 0 0 1 .774-.146c.34 0 .63.047.87.146a1.92 1.92 0 0 1 .63.24l-.34.92c-.146-.097-.3-.146-.484-.24-.146-.048-.387-.048-.63-.048a1.8 1.8 0 0 0-.582.097c-.096.097-.192.193-.192.337a.37.37 0 0 0 .097.244c.05.096.098.145.193.2.05.05.146.1.242.147l.387.097.678.3.484.34a1.01 1.01 0 0 1 .29.482 1.79 1.79 0 0 1 .1.582c0 .483-.146.87-.486 1.112-.338.3-.87.435-1.5.435l-.63-.047c-.192-.05-.338-.098-.482-.098l-.388-.146-.24-.146.338-.87c.146.047.34.145.58.193.2.1.48.1.82.1h0zm-6.775-4.355v1.016a1.29 1.29 0 0 0-.58.145c-.145.1-.3.194-.388.338-.145.146-.2.292-.3.534-.048.192-.096.435-.096.677s.048.436.096.678c.1.193.146.34.3.484.098.145.243.3.388.34a1.29 1.29 0 0 0 .58.146v1.016c-.337 0-.677-.098-.968-.193s-.58-.3-.82-.484c-.244-.242-.4-.53-.534-.87-.146-.292-.192-.68-.192-1.114s.047-.823.192-1.16.34-.63.58-.87a2.1 2.1 0 0 1 .773-.484c.34-.1.63-.197.968-.197h0zm-33.337 5.37v-1.015c.194 0 .388-.05.533-.146.193-.047.34-.192.435-.34.146-.145.243-.3.292-.483.05-.243.096-.437.096-.678a2.49 2.49 0 0 0-.096-.677c-.05-.242-.146-.4-.292-.533-.097-.146-.24-.3-.435-.34a.98.98 0 0 0-.533-.146V31.68c.34 0 .678.096.968.193s.58.3.823.484c.24.242.387.532.533.87s.192.725.192 1.16-.048.823-.192 1.112c-.146.34-.292.63-.533.87-.242.193-.482.387-.823.484-.3.1-.63.195-.968.195zm10.2-5.224l.34.58c.098.244.193.533.34.773l.386.873c.098.3.243.578.34.822l.34-.822c.096-.292.24-.582.386-.873l.34-.773c.098-.24.242-.436.3-.58h1.064l.145 1.113.196 2.708a11.45 11.45 0 0 1 .048 1.258h-1.112l-.05-1.597c0-.58-.05-1.16-.098-1.8l-.3.726c-.146.242-.242.483-.34.726l-.3.727-.24.58h-.824l-.24-.58c-.097-.242-.193-.484-.34-.727l-.3-.726c-.096-.3-.192-.483-.3-.726l-.145 1.8-.047 1.597h-1.113c.05-.387.05-.822.096-1.258l.05-1.354.146-1.354c.05-.387.05-.774.145-1.113h1.06zm7.113 5.08v-5.08h3.436v.968h-2.274v1.017h2.032v.918h-2.032v1.2h2.468v.968h-3.63v-.001zm9.724 0l-1.063-1.693-1.2-1.645v3.338h-1.162v-5.08h.968l.532.58.58.773.63.824.533.822v-3h1.16v5.08h-.968v.001zm-27.047-5.225v1.016c-.24 0-.435.048-.58.145-.193.1-.338.194-.435.338s-.193.292-.242.534c-.097.192-.097.435-.097.677s0 .436.097.678c.05.193.146.34.242.484s.24.3.435.34c.146.097.34.146.58.146v1.016c-.386 0-.676-.098-1.015-.193a2.25 2.25 0 0 1-.774-.484c-.242-.242-.436-.53-.58-.87-.098-.292-.194-.68-.194-1.114s.097-.823.194-1.16a2.7 2.7 0 0 1 .58-.87c.242-.193.483-.388.822-.484.292-.1.63-.197.967-.197h0zm-7.402 5.274V35.94c.3-.096.484-.193.678-.386.242-.3.387-.678.387-1.162 0-.533-.096-.97-.387-1.26-.145-.144-.388-.24-.678-.337v-.968c.194 0 .388.05.533.098.387.097.678.24.92.436.3.242.482.482.627.82.098.34.195.727.195 1.2 0 .436-.098.823-.195 1.113-.145.34-.338.63-.627.822-.242.242-.533.387-.92.484-.145.048-.34.097-.533.146zm0-5.13v.968c-.145-.05-.338-.05-.58-.05h-.484v3.242h.438c.24 0 .436 0 .63-.05v1.017c-.193 0-.436.05-.678.05-.193 0-.436 0-.726-.05-.3 0-.532-.05-.823-.098v-4.982l.87-.098h.727c.24 0 .435 0 .626.05zm-14.708 4.016v-.92h.726c-.096-.24-.193-.434-.242-.628a4.08 4.08 0 0 1-.193-.58c-.098-.146-.145-.292-.193-.437-.05-.098-.097-.193-.097-.3v-1.16h.532l.533 1.064.483 1.2.483 1.307.53 1.5h-1.208c-.05-.146-.098-.338-.194-.533-.05-.2-.096-.386-.193-.53h-.968zm8.517 1.064l-1.065-1.693-1.2-1.645v3.338h-1.16v-5.08h.967l.532.58.58.773.63.824.533.822v-3h1.162v5.08h-.967v.001zm-8.517-5.08v1.16c-.05.05-.097.144-.145.3l-.146.437c-.098.192-.145.34-.242.58-.05.193-.146.386-.193.628h.726v.92h-1.017c-.05.145-.145.34-.193.53s-.146.4-.193.533h-1.16l.53-1.498.484-1.307.482-1.2.533-1.065h.533zm-19.692 4.016v-.92h.727c-.05-.24-.146-.434-.195-.628l-.242-.58-.144-.437-.146-.3v-1.16h.58c.194.34.34.727.484 1.064l.532 1.2.483 1.307.533 1.5h-1.2c-.048-.146-.146-.338-.192-.533s-.146-.386-.195-.53h-1.015zm6.53.194c.146 0 .3 0 .387-.05.098 0 .195-.048.244-.098.096-.047.145-.096.145-.145.05-.097.05-.144.05-.24 0-.146-.098-.3-.242-.387-.146-.146-.437-.242-.824-.4-.146-.047-.34-.096-.482-.192a.7.7 0 0 1-.436-.291c-.146-.097-.242-.24-.338-.388-.1-.192-.148-.386-.148-.63s.05-.435.148-.627.24-.34.385-.485.34-.24.58-.3a1.94 1.94 0 0 1 .773-.146 2.75 2.75 0 0 1 .919.146 1.61 1.61 0 0 1 .58.24l-.3.92-.48-.24c-.194-.048-.388-.048-.63-.048-.293 0-.484.048-.63.097-.098.097-.145.193-.145.337 0 .098 0 .195.047.244a.37.37 0 0 0 .194.19l.3.147.34.097.677.3a2.12 2.12 0 0 1 .485.34c.145.145.24.3.3.482.1.146.1.34.1.582 0 .483-.146.87-.485 1.112-.338.3-.822.435-1.498.435l-.63-.047c-.193-.05-.34-.098-.485-.098-.146-.05-.24-.098-.34-.146a1.01 1.01 0 0 1-.242-.146l.3-.87c.146.047.34.145.582.193.24.1.483.1.82.1h0zm8.516-4.2v.968h-1.55v4.112h-1.163v-4.112h-1.498v-.968h4.2zm-15.047 0v1.16c0 .05-.048.144-.098.3l-.145.437c-.098.192-.145.34-.242.58-.048.193-.146.386-.24.628h.726v.92h-.97c-.047.145-.145.34-.193.53s-.144.4-.192.533h-1.16l.53-1.498c.146-.486.34-.92.484-1.307l.484-1.2.53-1.065h.485zM92.64 35.843v-.92h.726c-.097-.24-.194-.434-.242-.628-.097-.24-.145-.388-.193-.58-.097-.146-.146-.292-.194-.437-.048-.098-.097-.193-.097-.3v-1.16h.532l.532 1.064.484 1.2.483 1.307.533 1.5h-1.2c-.048-.146-.097-.338-.194-.533-.048-.2-.097-.386-.193-.53h-.968zm5.08-4.016h1.162v5.08H97.72v-5.08zm5.565 4.2c.193 0 .3 0 .436-.05.097 0 .145-.048.242-.098l.145-.145v-.24c0-.146-.048-.3-.242-.387-.145-.146-.387-.242-.774-.4a2.32 2.32 0 0 1-.532-.192c-.146-.048-.3-.146-.436-.3-.145-.097-.242-.24-.34-.388-.048-.192-.097-.386-.097-.63s.05-.435.097-.627c.097-.195.242-.34.387-.485a1.88 1.88 0 0 1 .58-.3c.242-.1.532-.146.822-.146.34 0 .63.047.87.146.242.047.436.145.63.24l-.34.92c-.145-.097-.3-.146-.483-.24-.194-.048-.387-.048-.63-.048-.3 0-.483.048-.58.097-.145.097-.194.193-.194.337 0 .098.05.195.05.244.048.096.145.145.194.2l.3.147.34.097c.3.096.532.193.726.3s.34.243.484.34l.3.482a1.83 1.83 0 0 1 .097.582c0 .483-.194.87-.532 1.112-.3.3-.823.435-1.5.435-.193 0-.436-.047-.58-.047-.194-.05-.338-.098-.484-.098l-.387-.146c-.097-.048-.193-.097-.242-.146l.34-.87c.145.047.338.145.532.193.24.1.53.1.82.1h0zm10.788-3.34c-.53 0-.918.145-1.16.434-.242.34-.387.727-.387 1.26 0 .24.047.434.096.678a1.17 1.17 0 0 0 .291.533c.097.144.242.24.436.337a2.12 2.12 0 0 0 .629.098h.3s.193 0 .24-.05v-1.742h1.112v2.517c-.145.05-.338.098-.63.145-.3.098-.678.098-1.113.098a3.81 3.81 0 0 1-1.062-.145c-.3-.146-.533-.3-.775-.533s-.387-.483-.532-.822a4.13 4.13 0 0 1-.144-1.113c0-.436.047-.822.192-1.162a2.45 2.45 0 0 1 .532-.822c.242-.242.482-.387.822-.53.3-.098.63-.193.967-.193.242 0 .484.047.68.047l.483.146c.146.05.242.096.3.096.098.05.193.097.242.146l-.34.92c-.145-.097-.3-.194-.532-.242-.193-.053-.388-.1-.63-.1h0zm-21.433-.87v1.16c-.048.05-.097.144-.145.3l-.146.437c-.096.192-.145.34-.242.58-.048.193-.145.386-.194.628h.726v.92h-1.016c-.048.145-.145.34-.193.53s-.146.4-.194.533h-1.16l.532-1.498.484-1.307.483-1.2.532-1.065h.534zm-31.207 4.016v-.92h.726l-.242-.628c-.05-.24-.146-.388-.193-.58l-.194-.437-.097-.3v-1.16h.58l.484 1.064.483 1.2c.194.388.34.822.533 1.307l.532 1.5h-1.258l-.146-.533c-.096-.2-.145-.386-.193-.53h-1.016zm7.886-.63c0 .242 0 .484-.048.726a3.6 3.6 0 0 1-.339.581c-.097.145-.3.3-.532.387s-.533.145-.92.145c-.338 0-.628-.047-.87-.145a3.24 3.24 0 0 1-.58-.29l.387-.87.436.193c.194.098.338.098.532.098.3 0 .483-.05.63-.193.097-.146.194-.388.194-.68v-3.338h1.113v3.386zm2.952 1.694v-5.08h3.483v.968H73.43v1.017h2.032v.918H73.43v1.2h2.467v.968H72.27v-.001zm11.225-5.08c.097.145.193.34.3.58a5.47 5.47 0 0 0 .387.773l.34.873c.145.3.242.578.338.822.146-.242.242-.532.34-.822l.387-.873.387-.773a3.31 3.31 0 0 1 .29-.58h1.064a8.02 8.02 0 0 1 .097 1.113l.145 1.354c0 .435.05.87.097 1.354l.048 1.258h-1.113l-.048-1.597-.146-1.8-.58 1.452c-.146.242-.242.484-.34.727s-.146.436-.242.58h-.774a3.31 3.31 0 0 1-.29-.58l-.3-.727a4.88 4.88 0 0 0-.34-.726c-.097-.3-.193-.483-.3-.726l-.096 1.8-.05 1.597h-1.113l.048-1.258.194-2.708.146-1.113h1.112zm-33.918 5.08l-.58-1.305-.58-1.356-.484-1.305-.387-1.114h1.258l.338.968.34 1.017.34.967.34.773c.097-.193.193-.483.3-.773l.387-.967.338-1.017.3-.968h1.258c-.146.34-.242.678-.387 1.113l-.484 1.306-.58 1.356-.58 1.305h-1.113zm11.855-5.08v1.16c-.048.05-.048.144-.097.3l-.194.437c-.048.192-.145.34-.193.58-.097.193-.146.386-.242.628h.726v.92h-.968c-.097.145-.145.34-.193.53-.097.195-.146.4-.194.533h-1.2l.532-1.498.532-1.307c.145-.436.34-.824.483-1.2l.484-1.065h.533zm-6.194 0h1.113v5.08H55.24v-5.08zM35.546 34.15h9.773v.773h-9.773v-.773zm172.778 0h9.775v.773h-9.775v-.773z" fill="#fff"/></svg>